P3
30 30
255
240 0 0
232 0 8
224 0 16
216 0 24
208 0 32
200 0 40
192 0 48
184 0 56
176 0 64
168 0 72
160 0 80
152 0 88
144 0 96
136 0 104
128 0 112
120 0 120
112 0 128
104 0 136
96 0 144
88 0 152
80 0 160
72 0 168
64 0 176
56 0 184
48 0 192
40 0 200
32 0 208
24 0 216
16 0 224
8 0 232
240 0 0
232 0 8
224 0 16
216 0 24
208 0 32
200 0 40
192 0 48
184 0 56
176 0 64
168 0 72
160 0 80
152 0 88
144 0 96
136 0 104
128 0 112
120 0 120
112 0 128
104 0 136
96 0 144
88 0 152
80 0 160
72 0 168
64 0 176
56 0 184
48 0 192
40 0 200
32 0 208
24 0 216
16 0 224
8 0 232
240 0 0
232 0 8
224 0 16
216 0 24
208 0 32
200 0 40
192 0 48
184 0 56
176 0 64
168 0 72
160 0 80
152 0 88
144 0 96
136 0 104
128 0 112
120 0 120
112 0 128
104 0 136
96 0 144
88 0 152
80 0 160
72 0 168
64 0 176
56 0 184
48 0 192
40 0 200
32 0 208
24 0 216
16 0 224
8 0 232
240 0 0
232 0 8
224 0 16
216 0 24
208 0 32
200 0 40
192 0 48
184 0 56
176 0 64
168 0 72
160 0 80
152 0 88
144 0 96
136 0 104
128 0 112
120 0 120
112 0 128
104 0 136
96 0 144
88 0 152
80 0 160
72 0 168
64 0 176
56 0 184
48 0 192
40 0 200
32 0 208
24 0 216
16 0 224
8 0 232
240 0 0
232 0 8
224 0 16
216 0 24
208 0 32
200 0 40
192 0 48
184 0 56
176 0 64
168 0 72
160 0 80
152 0 88
144 0 96
136 0 104
128 0 112
120 0 120
112 0 128
104 0 136
96 0 144
88 0 152
80 0 160
72 0 168
64 0 176
56 0 184
48 0 192
40 0 200
32 0 208
24 0 216
16 0 224
8 0 232
240 0 0
232 0 8
224 0 16
216 0 24
208 0 32
200 0 40
192 0 48
184 0 56
176 0 64
168 0 72
160 0 80
152 0 88
144 0 96
136 0 104
128 0 112
120 0 120
112 0 128
104 0 136
96 0 144
88 0 152
80 0 160
72 0 168
64 0 176
56 0 184
48 0 192
40 0 200
32 0 208
24 0 216
16 0 224
8 0 232
240 0 0
232 0 8
224 0 16
216 0 24
208 0 32
200 0 40
192 0 48
184 0 56
176 0 64
168 0 72
160 0 80
152 0 88
144 0 96
136 0 104
128 0 112
120 0 120
112 0 128
104 0 136
96 0 144
88 0 152
80 0 160
72 0 168
64 0 176
56 0 184
48 0 192
40 0 200
32 0 208
24 0 216
16 0 224
8 0 232
240 0 0
232 0 8
224 0 16
216 0 24
208 0 32
200 0 40
192 0 48
184 0 56
176 0 64
168 0 72
160 0 80
152 0 88
144 0 96
0 255 0
0 255 0
0 255 0
0 255 0
0 255 0
96 0 144
88 0 152
80 0 160
72 0 168
64 0 176
56 0 184
48 0 192
40 0 200
32 0 208
24 0 216
16 0 224
8 0 232
240 0 0
232 0 8
224 0 16
216 0 24
208 0 32
200 0 40
192 0 48
184 0 56
176 0 64
168 0 72
160 0 80
0 255 0
0 255 0
136 0 104
128 0 112
120 0 120
112 0 128
104 0 136
0 255 0
0 255 0
80 0 160
72 0 168
64 0 176
56 0 184
48 0 192
40 0 200
32 0 208
24 0 216
16 0 224
8 0 232
240 0 0
232 0 8
224 0 16
216 0 24
208 0 32
200 0 40
192 0 48
184 0 56
176 0 64
168 0 72
0 255 0
152 0 88
144 0 96
136 0 104
128 0 112
120 0 120
112 0 128
104 0 136
96 0 144
88 0 152
0 255 0
72 0 168
64 0 176
56 0 184
48 0 192
40 0 200
32 0 208
24 0 216
16 0 224
8 0 232
240 0 0
232 0 8
224 0 16
216 0 24
208 0 32
200 0 40
192 0 48
184 0 56
176 0 64
0 255 0
160 0 80
152 0 88
144 0 96
136 0 104
128 0 112
120 0 120
112 0 128
104 0 136
96 0 144
88 0 152
80 0 160
0 255 0
64 0 176
56 0 184
48 0 192
40 0 200
32 0 208
24 0 216
16 0 224
8 0 232
240 0 0
232 0 8
224 0 16
216 0 24
208 0 32
200 0 40
192 0 48
184 0 56
0 255 0
168 0 72
160 0 80
152 0 88
144 0 96
136 0 104
128 0 112
120 0 120
112 0 128
104 0 136
96 0 144
88 0 152
80 0 160
72 0 168
0 255 0
56 0 184
48 0 192
40 0 200
32 0 208
24 0 216
16 0 224
8 0 232
240 0 0
232 0 8
224 0 16
216 0 24
208 0 32
200 0 40
192 0 48
184 0 56
0 255 0
168 0 72
160 0 80
152 0 88
144 0 96
136 0 104
128 0 112
120 0 120
112 0 128
104 0 136
96 0 144
88 0 152
80 0 160
72 0 168
0 255 0
56 0 184
48 0 192
40 0 200
32 0 208
24 0 216
16 0 224
8 0 232
240 0 0
232 0 8
224 0 16
216 0 24
208 0 32
200 0 40
192 0 48
0 255 0
176 0 64
168 0 72
160 0 80
152 0 88
144 0 96
136 0 104
128 0 112
120 0 120
112 0 128
104 0 136
96 0 144
88 0 152
80 0 160
72 0 168
64 0 176
0 255 0
48 0 192
40 0 200
32 0 208
24 0 216
16 0 224
8 0 232
240 0 0
232 0 8
224 0 16
216 0 24
208 0 32
200 0 40
192 0 48
0 255 0
176 0 64
168 0 72
160 0 80
152 0 88
144 0 96
136 0 104
128 0 112
120 0 120
112 0 128
104 0 136
96 0 144
88 0 152
80 0 160
72 0 168
64 0 176
0 255 0
48 0 192
40 0 200
32 0 208
24 0 216
16 0 224
8 0 232
240 0 0
232 0 8
224 0 16
216 0 24
208 0 32
200 0 40
192 0 48
0 255 0
176 0 64
168 0 72
160 0 80
152 0 88
144 0 96
136 0 104
128 0 112
120 0 120
112 0 128
104 0 136
96 0 144
88 0 152
80 0 160
72 0 168
64 0 176
0 255 0
48 0 192
40 0 200
32 0 208
24 0 216
16 0 224
8 0 232
240 0 0
232 0 8
224 0 16
216 0 24
208 0 32
200 0 40
192 0 48
0 255 0
176 0 64
168 0 72
160 0 80
152 0 88
144 0 96
136 0 104
128 0 112
120 0 120
112 0 128
104 0 136
96 0 144
88 0 152
80 0 160
72 0 168
64 0 176
0 255 0
48 0 192
40 0 200
32 0 208
24 0 216
16 0 224
8 0 232
240 0 0
232 0 8
224 0 16
216 0 24
208 0 32
200 0 40
192 0 48
0 255 0
176 0 64
168 0 72
160 0 80
152 0 88
144 0 96
136 0 104
128 0 112
120 0 120
112 0 128
104 0 136
96 0 144
88 0 152
80 0 160
72 0 168
64 0 176
0 255 0
48 0 192
40 0 200
32 0 208
24 0 216
16 0 224
8 0 232
240 0 0
232 0 8
224 0 16
216 0 24
208 0 32
200 0 40
192 0 48
184 0 56
0 255 0
168 0 72
160 0 80
152 0 88
144 0 96
136 0 104
128 0 112
120 0 120
112 0 128
104 0 136
96 0 144
88 0 152
80 0 160
72 0 168
0 255 0
56 0 184
48 0 192
40 0 200
32 0 208
24 0 216
16 0 224
8 0 232
240 0 0
232 0 8
224 0 16
216 0 24
208 0 32
200 0 40
192 0 48
184 0 56
0 255 0
168 0 72
160 0 80
152 0 88
144 0 96
136 0 104
128 0 112
120 0 120
112 0 128
104 0 136
96 0 144
88 0 152
80 0 160
72 0 168
0 255 0
56 0 184
48 0 192
40 0 200
32 0 208
24 0 216
16 0 224
8 0 232
240 0 0
232 0 8
224 0 16
216 0 24
208 0 32
200 0 40
192 0 48
184 0 56
176 0 64
0 255 0
160 0 80
152 0 88
144 0 96
136 0 104
128 0 112
120 0 120
112 0 128
104 0 136
96 0 144
88 0 152
80 0 160
0 255 0
64 0 176
56 0 184
48 0 192
40 0 200
32 0 208
24 0 216
16 0 224
8 0 232
240 0 0
232 0 8
224 0 16
216 0 24
208 0 32
200 0 40
192 0 48
184 0 56
176 0 64
168 0 72
0 255 0
152 0 88
144 0 96
136 0 104
128 0 112
120 0 120
112 0 128
104 0 136
96 0 144
88 0 152
0 255 0
72 0 168
64 0 176
56 0 184
48 0 192
40 0 200
32 0 208
24 0 216
16 0 224
8 0 232
240 0 0
232 0 8
224 0 16
216 0 24
208 0 32
200 0 40
192 0 48
184 0 56
176 0 64
168 0 72
160 0 80
0 255 0
0 255 0
136 0 104
128 0 112
120 0 120
112 0 128
104 0 136
0 255 0
0 255 0
80 0 160
72 0 168
64 0 176
56 0 184
48 0 192
40 0 200
32 0 208
24 0 216
16 0 224
8 0 232
240 0 0
232 0 8
224 0 16
216 0 24
208 0 32
200 0 40
192 0 48
184 0 56
176 0 64
168 0 72
160 0 80
152 0 88
144 0 96
0 255 0
0 255 0
0 255 0
0 255 0
0 255 0
96 0 144
88 0 152
80 0 160
72 0 168
64 0 176
56 0 184
48 0 192
40 0 200
32 0 208
24 0 216
16 0 224
8 0 232
240 0 0
232 0 8
224 0 16
216 0 24
208 0 32
200 0 40
192 0 48
184 0 56
176 0 64
168 0 72
160 0 80
152 0 88
144 0 96
136 0 104
128 0 112
120 0 120
112 0 128
104 0 136
96 0 144
88 0 152
80 0 160
72 0 168
64 0 176
56 0 184
48 0 192
40 0 200
32 0 208
24 0 216
16 0 224
8 0 232
240 0 0
232 0 8
224 0 16
216 0 24
208 0 32
200 0 40
192 0 48
184 0 56
176 0 64
168 0 72
160 0 80
152 0 88
144 0 96
136 0 104
128 0 112
120 0 120
112 0 128
104 0 136
96 0 144
88 0 152
80 0 160
72 0 168
64 0 176
56 0 184
48 0 192
40 0 200
32 0 208
24 0 216
16 0 224
8 0 232
240 0 0
232 0 8
224 0 16
216 0 24
208 0 32
200 0 40
192 0 48
184 0 56
176 0 64
168 0 72
160 0 80
152 0 88
144 0 96
136 0 104
128 0 112
120 0 120
112 0 128
104 0 136
96 0 144
88 0 152
80 0 160
72 0 168
64 0 176
56 0 184
48 0 192
40 0 200
32 0 208
24 0 216
16 0 224
8 0 232
240 0 0
232 0 8
224 0 16
216 0 24
208 0 32
200 0 40
192 0 48
184 0 56
176 0 64
168 0 72
160 0 80
152 0 88
144 0 96
136 0 104
128 0 112
120 0 120
112 0 128
104 0 136
96 0 144
88 0 152
80 0 160
72 0 168
64 0 176
56 0 184
48 0 192
40 0 200
32 0 208
24 0 216
16 0 224
8 0 232
240 0 0
232 0 8
224 0 16
216 0 24
208 0 32
200 0 40
192 0 48
184 0 56
176 0 64
168 0 72
160 0 80
152 0 88
144 0 96
136 0 104
128 0 112
120 0 120
112 0 128
104 0 136
96 0 144
88 0 152
80 0 160
72 0 168
64 0 176
56 0 184
48 0 192
40 0 200
32 0 208
24 0 216
16 0 224
8 0 232
240 0 0
232 0 8
224 0 16
216 0 24
208 0 32
200 0 40
192 0 48
184 0 56
176 0 64
168 0 72
160 0 80
152 0 88
144 0 96
136 0 104
128 0 112
120 0 120
112 0 128
104 0 136
96 0 144
88 0 152
80 0 160
72 0 168
64 0 176
56 0 184
48 0 192
40 0 200
32 0 208
24 0 216
16 0 224
8 0 232
